<mxfile host="Electron" modified="2023-08-20T12:22:46.782Z" agent="Mozilla/5.0 (Windows NT 10.0; Win64; x64) AppleWebKit/537.36 (KHTML, like Gecko) draw.io/21.6.8 Chrome/114.0.5735.289 Electron/25.5.0 Safari/537.36" etag="SWAZcEBxmsdTe6xMFrAT" version="21.6.8" type="device">
  <diagram name="Page-1" id="TqXGzcuL3bXHPrWxkckN">
    <mxGraphModel dx="1042" dy="621" grid="1" gridSize="10" guides="1" tooltips="1" connect="1" arrows="1" fold="1" page="1" pageScale="1" pageWidth="850" pageHeight="1100" math="0" shadow="0">
      <root>
        <mxCell id="0" />
        <mxCell id="1" parent="0" />
        <mxCell id="rezULYJumXloK199isvv-1" value="Data warehouse" style="shape=cylinder3;whiteSpace=wrap;html=1;boundedLbl=1;backgroundOutline=1;size=15;fillColor=#b0e3e6;strokeColor=#0e8088;fontSize=14;fontColor=#000000;" vertex="1" parent="1">
          <mxGeometry x="365" y="160" width="140" height="140" as="geometry" />
        </mxCell>
        <mxCell id="rezULYJumXloK199isvv-2" value="Storage" style="text;html=1;strokeColor=none;fillColor=none;align=center;verticalAlign=middle;whiteSpace=wrap;rounded=0;fontSize=24;" vertex="1" parent="1">
          <mxGeometry x="405" y="60" width="60" height="30" as="geometry" />
        </mxCell>
        <mxCell id="rezULYJumXloK199isvv-3" value="Business" style="text;html=1;strokeColor=none;fillColor=none;align=center;verticalAlign=middle;whiteSpace=wrap;rounded=0;fontSize=24;" vertex="1" parent="1">
          <mxGeometry x="640" y="60" width="60" height="30" as="geometry" />
        </mxCell>
        <mxCell id="rezULYJumXloK199isvv-4" value="Source" style="text;html=1;strokeColor=none;fillColor=none;align=center;verticalAlign=middle;whiteSpace=wrap;rounded=0;fontSize=24;" vertex="1" parent="1">
          <mxGeometry x="150" y="60" width="60" height="30" as="geometry" />
        </mxCell>
        <mxCell id="rezULYJumXloK199isvv-21" style="edgeStyle=orthogonalEdgeStyle;rounded=0;orthogonalLoop=1;jettySize=auto;html=1;entryX=1;entryY=0.5;entryDx=0;entryDy=0;entryPerimeter=0;" edge="1" parent="1" source="rezULYJumXloK199isvv-5" target="rezULYJumXloK199isvv-1">
          <mxGeometry relative="1" as="geometry" />
        </mxCell>
        <mxCell id="rezULYJumXloK199isvv-5" value="" style="sketch=0;outlineConnect=0;dashed=0;verticalLabelPosition=bottom;verticalAlign=top;align=center;html=1;fontSize=12;fontStyle=0;aspect=fixed;pointerEvents=1;shape=mxgraph.aws4.rds_postgresql_instance;fillColor=#fad7ac;strokeColor=#b46504;" vertex="1" parent="1">
          <mxGeometry x="631" y="130" width="78" height="78" as="geometry" />
        </mxCell>
        <mxCell id="rezULYJumXloK199isvv-22" style="edgeStyle=orthogonalEdgeStyle;rounded=0;orthogonalLoop=1;jettySize=auto;html=1;exitX=0;exitY=0.5;exitDx=0;exitDy=0;" edge="1" parent="1" source="rezULYJumXloK199isvv-6">
          <mxGeometry relative="1" as="geometry">
            <mxPoint x="500" y="230" as="targetPoint" />
            <Array as="points">
              <mxPoint x="566" y="270" />
              <mxPoint x="566" y="231" />
            </Array>
          </mxGeometry>
        </mxCell>
        <mxCell id="rezULYJumXloK199isvv-6" value="Excel" style="label;whiteSpace=wrap;html=1;align=center;verticalAlign=bottom;spacingLeft=0;spacingBottom=4;imageAlign=center;imageVerticalAlign=top;image=img/clipart/Gear_128x128.png;" vertex="1" parent="1">
          <mxGeometry x="630" y="230" width="80" height="80" as="geometry" />
        </mxCell>
        <mxCell id="rezULYJumXloK199isvv-23" style="edgeStyle=orthogonalEdgeStyle;rounded=0;orthogonalLoop=1;jettySize=auto;html=1;entryX=1;entryY=0.5;entryDx=0;entryDy=0;entryPerimeter=0;" edge="1" parent="1" source="rezULYJumXloK199isvv-7" target="rezULYJumXloK199isvv-1">
          <mxGeometry relative="1" as="geometry" />
        </mxCell>
        <mxCell id="rezULYJumXloK199isvv-7" value="Business&lt;br&gt;Intelligence" style="verticalLabelPosition=bottom;sketch=0;html=1;fillColor=#fad7ac;strokeColor=#b46504;verticalAlign=top;pointerEvents=1;align=center;shape=mxgraph.cisco_safe.business_icons.icon2;" vertex="1" parent="1">
          <mxGeometry x="630" y="330" width="80" height="80" as="geometry" />
        </mxCell>
        <mxCell id="rezULYJumXloK199isvv-19" style="edgeStyle=orthogonalEdgeStyle;rounded=0;orthogonalLoop=1;jettySize=auto;html=1;entryX=0;entryY=0.5;entryDx=0;entryDy=0;entryPerimeter=0;" edge="1" parent="1" source="rezULYJumXloK199isvv-8" target="rezULYJumXloK199isvv-1">
          <mxGeometry relative="1" as="geometry">
            <Array as="points">
              <mxPoint x="280" y="160" />
              <mxPoint x="280" y="230" />
            </Array>
          </mxGeometry>
        </mxCell>
        <mxCell id="rezULYJumXloK199isvv-8" value="Sales" style="shape=cylinder3;whiteSpace=wrap;html=1;boundedLbl=1;backgroundOutline=1;size=15;" vertex="1" parent="1">
          <mxGeometry x="150" y="120" width="60" height="80" as="geometry" />
        </mxCell>
        <mxCell id="rezULYJumXloK199isvv-18" style="edgeStyle=orthogonalEdgeStyle;rounded=0;orthogonalLoop=1;jettySize=auto;html=1;exitX=1;exitY=0.5;exitDx=0;exitDy=0;" edge="1" parent="1" source="rezULYJumXloK199isvv-9">
          <mxGeometry relative="1" as="geometry">
            <mxPoint x="360" y="230" as="targetPoint" />
            <Array as="points">
              <mxPoint x="280" y="254" />
              <mxPoint x="280" y="231" />
            </Array>
          </mxGeometry>
        </mxCell>
        <mxCell id="rezULYJumXloK199isvv-9" value="" style="shape=mxgraph.gcp2.doubleRect;strokeColor=#dddddd;shadow=1;strokeWidth=1;" vertex="1" parent="1">
          <mxGeometry x="80" y="220" width="168" height="68" as="geometry" />
        </mxCell>
        <mxCell id="rezULYJumXloK199isvv-10" value="&lt;font color=&quot;#000000&quot;&gt;API&lt;/font&gt;&lt;br&gt;Google Analytics" style="sketch=0;dashed=0;connectable=0;html=1;fillColor=#5184F3;strokeColor=none;shape=mxgraph.gcp2.google_analytics;part=1;labelPosition=right;verticalLabelPosition=middle;align=left;verticalAlign=middle;spacingLeft=5;fontColor=#999999;fontSize=12;" vertex="1" parent="rezULYJumXloK199isvv-9">
          <mxGeometry width="45" height="45" relative="1" as="geometry">
            <mxPoint x="5" y="7" as="offset" />
          </mxGeometry>
        </mxCell>
        <mxCell id="rezULYJumXloK199isvv-15" style="edgeStyle=orthogonalEdgeStyle;rounded=0;orthogonalLoop=1;jettySize=auto;html=1;entryX=0;entryY=0.5;entryDx=0;entryDy=0;entryPerimeter=0;exitX=-0.005;exitY=0.605;exitDx=0;exitDy=0;exitPerimeter=0;" edge="1" parent="1" source="rezULYJumXloK199isvv-12" target="rezULYJumXloK199isvv-13">
          <mxGeometry relative="1" as="geometry" />
        </mxCell>
        <mxCell id="rezULYJumXloK199isvv-12" value="BI" style="verticalLabelPosition=bottom;sketch=0;html=1;fillColor=#fad7ac;strokeColor=#b46504;verticalAlign=top;pointerEvents=1;align=center;shape=mxgraph.cisco_safe.business_icons.icon2;" vertex="1" parent="1">
          <mxGeometry x="140" y="510" width="80" height="80" as="geometry" />
        </mxCell>
        <mxCell id="rezULYJumXloK199isvv-17" style="edgeStyle=orthogonalEdgeStyle;rounded=0;orthogonalLoop=1;jettySize=auto;html=1;entryX=0;entryY=0.5;entryDx=0;entryDy=0;entryPerimeter=0;" edge="1" parent="1" source="rezULYJumXloK199isvv-13" target="rezULYJumXloK199isvv-1">
          <mxGeometry relative="1" as="geometry">
            <Array as="points">
              <mxPoint x="280" y="350" />
              <mxPoint x="280" y="230" />
            </Array>
          </mxGeometry>
        </mxCell>
        <mxCell id="rezULYJumXloK199isvv-13" value="Storehouse" style="shape=cylinder3;whiteSpace=wrap;html=1;boundedLbl=1;backgroundOutline=1;size=15;" vertex="1" parent="1">
          <mxGeometry x="150" y="310" width="60" height="80" as="geometry" />
        </mxCell>
        <mxCell id="rezULYJumXloK199isvv-20" style="edgeStyle=orthogonalEdgeStyle;rounded=0;orthogonalLoop=1;jettySize=auto;html=1;entryX=0;entryY=0.5;entryDx=0;entryDy=0;entryPerimeter=0;" edge="1" parent="1" source="rezULYJumXloK199isvv-14" target="rezULYJumXloK199isvv-1">
          <mxGeometry relative="1" as="geometry">
            <Array as="points">
              <mxPoint x="280" y="450" />
              <mxPoint x="280" y="230" />
            </Array>
          </mxGeometry>
        </mxCell>
        <mxCell id="rezULYJumXloK199isvv-14" value="CRM" style="shape=cylinder3;whiteSpace=wrap;html=1;boundedLbl=1;backgroundOutline=1;size=15;" vertex="1" parent="1">
          <mxGeometry x="150" y="410" width="60" height="80" as="geometry" />
        </mxCell>
        <mxCell id="rezULYJumXloK199isvv-24" value="" style="line;strokeWidth=2;direction=south;html=1;fillColor=#bac8d3;strokeColor=#23445d;" vertex="1" parent="1">
          <mxGeometry x="300" y="60" width="10" height="540" as="geometry" />
        </mxCell>
        <mxCell id="rezULYJumXloK199isvv-25" value="" style="line;strokeWidth=2;direction=south;html=1;fillColor=#bac8d3;strokeColor=#23445d;" vertex="1" parent="1">
          <mxGeometry x="540" y="60" width="10" height="540" as="geometry" />
        </mxCell>
      </root>
    </mxGraphModel>
  </diagram>
</mxfile>
